<mxfile host="65bd71144e">
    <diagram id="IU7TK99nfvstUe6ienF9" name="Page-1">
        <mxGraphModel dx="1153" dy="479" grid="1" gridSize="10" guides="1" tooltips="1" connect="1" arrows="1" fold="1" page="1" pageScale="1" pageWidth="827" pageHeight="1169" math="0" shadow="0">
            <root>
                <mxCell id="0"/>
                <mxCell id="1" parent="0"/>
                <mxCell id="20" value="EC2 Instance" style="points=[[0,0],[0.25,0],[0.5,0],[0.75,0],[1,0],[1,0.25],[1,0.5],[1,0.75],[1,1],[0.75,1],[0.5,1],[0.25,1],[0,1],[0,0.75],[0,0.5],[0,0.25]];outlineConnect=0;gradientColor=none;html=1;whiteSpace=wrap;fontSize=12;fontStyle=0;container=1;pointerEvents=0;collapsible=0;recursiveResize=0;shape=mxgraph.aws4.group;grIcon=mxgraph.aws4.group_on_premise;strokeColor=#FF8000;fillColor=none;verticalAlign=top;align=left;spacingLeft=30;fontColor=#5A6C86;dashed=0;" vertex="1" parent="1">
                    <mxGeometry x="182.5" y="60" width="375" height="340" as="geometry"/>
                </mxCell>
                <mxCell id="19" value="Docker" style="fillColor=none;strokeColor=#0db7ed;dashed=1;verticalAlign=top;fontStyle=0;fontColor=#5A6C86;" vertex="1" parent="1">
                    <mxGeometry x="210" y="100" width="320" height="280" as="geometry"/>
                </mxCell>
                <mxCell id="3" value="InfluxDB" style="rounded=1;whiteSpace=wrap;html=1;strokeColor=#384d54;" parent="1" vertex="1">
                    <mxGeometry x="230" y="150" width="80" height="40" as="geometry"/>
                </mxCell>
                <mxCell id="4" value="MongoDB" style="rounded=1;whiteSpace=wrap;html=1;strokeColor=#384d54;" parent="1" vertex="1">
                    <mxGeometry x="330" y="150" width="80" height="40" as="geometry"/>
                </mxCell>
                <mxCell id="6" value="Grafana" style="rounded=1;whiteSpace=wrap;html=1;strokeColor=#384d54;" parent="1" vertex="1">
                    <mxGeometry x="230" y="210" width="80" height="40" as="geometry"/>
                </mxCell>
                <mxCell id="7" value="Telegraf" style="rounded=1;whiteSpace=wrap;html=1;strokeColor=#384d54;" parent="1" vertex="1">
                    <mxGeometry x="330" y="210" width="80" height="40" as="geometry"/>
                </mxCell>
                <mxCell id="9" value="Let's&lt;br&gt;&amp;nbsp;Encrypt" style="rounded=1;whiteSpace=wrap;html=1;strokeColor=#384d54;" parent="1" vertex="1">
                    <mxGeometry x="230" y="270" width="80" height="40" as="geometry"/>
                </mxCell>
                <mxCell id="10" value="Web Dev" style="rounded=1;whiteSpace=wrap;html=1;strokeColor=#384d54;" parent="1" vertex="1">
                    <mxGeometry x="430" y="210" width="80" height="40" as="geometry"/>
                </mxCell>
                <mxCell id="11" value="Redis" style="rounded=1;whiteSpace=wrap;html=1;strokeColor=#384d54;glass=0;shadow=0;sketch=0;strokeWidth=1;" parent="1" vertex="1">
                    <mxGeometry x="430" y="150" width="80" height="40" as="geometry"/>
                </mxCell>
                <mxCell id="12" value="OpenSSH" style="rounded=1;whiteSpace=wrap;html=1;strokeColor=#384d54;" parent="1" vertex="1">
                    <mxGeometry x="330" y="270" width="80" height="40" as="geometry"/>
                </mxCell>
                <mxCell id="13" value="Workers" style="rounded=1;whiteSpace=wrap;html=1;strokeColor=#384d54;" parent="1" vertex="1">
                    <mxGeometry x="280" y="330" width="80" height="40" as="geometry"/>
                </mxCell>
                <mxCell id="14" value="Workers&lt;br&gt;(Beat)" style="rounded=1;whiteSpace=wrap;html=1;strokeColor=#384d54;" parent="1" vertex="1">
                    <mxGeometry x="430" y="270" width="80" height="40" as="geometry"/>
                </mxCell>
                <mxCell id="15" value="Nginx" style="rounded=1;whiteSpace=wrap;html=1;strokeColor=#384d54;" parent="1" vertex="1">
                    <mxGeometry x="390" y="330" width="80" height="40" as="geometry"/>
                </mxCell>
            </root>
        </mxGraphModel>
    </diagram>
</mxfile>